PathFileType	4	(X/Y/Z)	C:/Users/beibeiliu/ov580/test_trc/User2\sequence.41_training_dense_right.trc
DataRate	CameraRate	NumFrames	NumMarkers	Units	OrigDataRate	OrigDataStartFrame	OrigNumFrames
120	120	8	19	mm	120	86	170
Frame#	Time	ThumbCMC			ThumbMCP			ThumbIP			ThumbTip			IndexMCP			IndexPIP			IndexTip			MiddleMCP			MiddlePIP			MiddleTip			RingMCP			RingPIP			RingTip			PinkyMCP			PinkyPIP			PinkyTip			BackHand1			BackHand2			BackHand3	
		X0	Y0	Z0	X1	Y1	Z1	X2	Y2	Z2	X3	Y3	Z3	X4	Y4	Z4	X5	Y5	Z5	X6	Y6	Z6	X7	Y7	Z7	X8	Y8	Z8	X9	Y9	Z9	X10	Y10	Z10	X11	Y11	Z11	X12	Y12	Z12	X13	Y13	Z13	X14	Y14	Z14	X15	Y15	Z15	X16	Y16	Z16	X17	Y17	Z17	X18	Y18	Z18	
85	0.708333	103.162	73.6006	0.426151	89.9705	97.8507	-18.1548	65.1031	100.449	-43.7334	44.6393	87.0795	-57.4677	59.7033	64.7144	-68.2649	30.5971	69.6894	-53.0186	52.4916	69.2295	-21.916	47.1405	46.8272	-67.0736	22.0837	50.6917	-44.7199	50.9159	52.6298	-11.1662	36.398	25.1948	-52.9743	22.5139	37.7574	-30.3912	53.4665	36.0149	-7.68313	36.6439	11.4559	-40.2567	26.4061	25.2767	-13.671	58.607	27.7905	-1.23763	98.2183	11.19	-30.6171	114.426	5.87225	1.72459	115.694	39.0208	-15.972	
86	0.716667	105.766	74.3015	-0.458232	94.7897	98.4141	-19.6965	71.446	102.66	-50.7746	50.1963	87.9063	-63.0386	58.7633	63.763	-70.9089	33.1529	68.3461	-56.7325	55.497	66.505	-23.2538	50.0522	42.6278	-67.8658	23.6728	50.8834	-43.1442	54.4148	52.9945	-14.8012	36.1998	25.6915	-53.3344	25.223	39.3608	-28.3597	57.6547	40.0839	-11.0625	39.0412	10.9615	-40.5323	28.9487	28.4261	-14.616	56.8971	28.9876	-0.349379	96.9336	9.66888	-31.7804	116.93	4.30556	-0.719113	116.761	39.8297	-20.1523	
87	0.725	105.227	72.6353	2.03423	93.3659	93.7093	-24.7024	71.2897	100.79	-53.306	50.6925	84.1028	-68.2991	59.3709	60.7457	-71.197	32.9307	67.4069	-57.7485	51.0613	71.2398	-25.7578	47.9954	43.663	-67.7493	25.4587	53.4795	-44.0933	52.8237	50.3673	-14.8852	37.6163	26.4905	-53.4997	24.7543	36.2792	-26.7297	56.041	38.7127	-10.058	37.241	8.51119	-39.2308	29.6876	26.7358	-13.9692	59.9179	24.5774	0.801908	98.7064	6.54972	-30.3672	113.806	5.53904	-0.964962	116.215	39.0614	-16.2797	
88	0.733333	103.073	72.8254	3.18804	89.0669	95.7943	-22.9214	67.4967	97.3645	-49.796	47.3009	84.5545	-66.5286	59.3866	59.3929	-70.0088	30.6359	65.3951	-54.3276	53.1008	70.6022	-25.5214	46.1358	39.6178	-66.1761	23.4068	49.8239	-42.9505	53.9165	52.7082	-13.6185	36.8548	29.1588	-52.2653	25.7257	38.6156	-25.2861	59.1694	35.1098	-8.4458	38.7226	10.2031	-40.1132	29.2629	26.1507	-10.7008	62.1772	25.2647	0.887407	95.5213	10.5119	-33.0746	114.075	7.62096	-2.99845	115.99	40.792	-18.6561	
89	0.741667	98.9529	73.5286	-1.42442	82.104	93.8719	-20.4885	59.4139	98.3454	-49.8942	40.7784	89.2379	-63.5267	57.9497	62.7221	-69.1863	30.2557	70.3445	-56.8997	50.5468	67.2872	-22.9686	47.2185	41.4647	-64.2273	23.3874	52.7426	-38.9119	55.0003	54.0615	-13.3385	35.9823	29.1597	-51.8717	23.8407	35.5034	-26.0348	56.3744	39.4196	-9.11805	36.1266	8.93992	-38.4661	28.3307	26.3439	-12.9935	57.0802	26.6133	3.13875	96.5133	8.28237	-30.6871	112.84	5.33213	-2.67377	115.389	43.8281	-21.3046	
90	0.75	97.7257	75.8188	1.54426	77.0066	95.576	-21.2961	52.3871	97.9728	-48.9757	32.1429	91.9831	-63.9704	56.2572	67.2735	-70.5842	29.3677	67.7748	-55.4512	46.7406	70.1898	-23.8804	47.9861	42.4917	-64.6099	23.0066	53.5949	-39.533	50.1533	52.9799	-11.1123	37.1014	26.0891	-51.9723	25.4653	38.2406	-23.0807	58.412	36.9721	-8.55445	37.96	10.5982	-39.2702	28.0068	24.1413	-9.83423	55.9992	26.7589	1.78	95.4982	12.3774	-34.6351	115.401	9.78329	0.323909	115.69	45.482	-21.0727	
91	0.758333	95.6944	72.9797	0.878149	73.1696	95.9747	-19.9687	47.9022	97.33	-39.4494	27.1158	92.9208	-58.3906	55.5524	65.3702	-68.9912	28.1287	71.4526	-51.1382	47.7659	69.412	-22.4325	45.9179	44.9483	-64.4729	22.1065	53.7971	-36.2355	50.9857	53.5084	-10.2464	35.5053	29.6765	-51.8256	24.3648	36.7623	-20.9335	56.0113	39.2222	-8.17642	36.1607	8.74271	-39.3594	29.1222	26.0163	-9.58158	55.8753	27.0365	2.75995	95.4913	11.545	-36.063	114.451	7.12224	-2.41168	114.935	44.9824	-18.1187	
92	0.766667	93.3103	75.3403	0.0872198	69.1148	91.5445	-15.1431	42.222	98.2938	-37.4718	23.5475	86.4854	-53.3446	55.0074	70.1133	-67.5149	26.6797	72.4651	-49.4639	47.6186	66.6657	-21.0572	45.5752	46.3283	-65.0822	21.5045	55.325	-38.0426	46.8124	49.5983	-9.47104	36.0123	31.1333	-50.8622	22.0368	36.5482	-24.4191	59.0967	35.5803	-6.25545	33.3004	12.0927	-38.9731	27.0634	25.9006	-12.6137	57.749	27.8246	3.86189	95.8074	11.4721	-35.0688	114.609	5.95214	-1.89117	112.6	45.0634	-17.7624	
